<svg xmlns="http://www.w3.org/2000/svg" xml:space="preserve" width="655.359" height="655.359" style="shape-rendering:geometricPrecision;text-rendering:geometricPrecision;image-rendering:optimizeQuality;fill-rule:evenodd;clip-rule:evenodd" viewBox="0 0 6.827 6.827"><defs><style>.fil0{fill:#212121;fill-rule:nonzero}</style></defs><g id="Layer_x0020_1"><path class="fil0" d="M3.412.853a2.55 2.55 0 0 1 1.809.75c.463.464.75 1.104.75 1.81 0 .707-.287 1.347-.75 1.81a2.55 2.55 0 0 1-1.81.75 2.55 2.55 0 0 1-1.808-.75 2.552 2.552 0 0 1-.75-1.81c0-.706.287-1.346.75-1.81a2.55 2.55 0 0 1 1.809-.75zm1.658.9a2.337 2.337 0 0 0-1.658-.686c-.648 0-1.234.262-1.658.687a2.34 2.34 0 0 0-.687 1.66c0 .648.262 1.234.687 1.66.424.423 1.01.686 1.658.686.648 0 1.234-.263 1.658-.687a2.34 2.34 0 0 0 .687-1.66 2.34 2.34 0 0 0-.687-1.66z"/><path class="fil0" d="M2.033 1.307a.107.107 0 0 1 .212.025c-.05.413.024.773.223 1.09.203.324.536.608.998.862a.106.106 0 0 1-.102.187c-.494-.272-.853-.58-1.076-.935-.226-.36-.311-.766-.255-1.23zM1.3 2.005a.106.106 0 1 1 .213-.001c.003.452.15.866.445 1.252.3.393.75.758 1.356 1.104a.107.107 0 0 1-.106.185c-.63-.36-1.102-.744-1.42-1.16a2.248 2.248 0 0 1-.488-1.38zM.896 3.113a.106.106 0 0 1 .203-.063c.16.507.376.92.664 1.252.286.33.645.58 1.092.759a.106.106 0 0 1-.08.197 2.983 2.983 0 0 1-1.173-.817c-.308-.354-.538-.793-.706-1.328z"/><path class="fil0" d="M2.239 5.645a.106.106 0 0 1-.079-.198c.387-.153.678-.397.872-.73.197-.338.297-.77.3-1.298a.106.106 0 0 1 .212.001c-.003.565-.112 1.033-.328 1.404-.218.375-.544.65-.977.821zM3.255 5.941a.106.106 0 0 1-.103-.186c.395-.218.685-.557.88-1.01.2-.464.302-1.047.317-1.744a.106.106 0 1 1 .213.004c-.016.726-.124 1.335-.334 1.823-.214.498-.535.87-.973 1.113zM4.418 5.752a.106.106 0 0 1-.154-.148c.369-.383.626-.777.777-1.195.15-.416.194-.858.138-1.338a.107.107 0 0 1 .211-.024c.06.511.012.985-.15 1.434-.16.447-.433.866-.822 1.27z"/><path class="fil0" d="M5.931 3.262a.106.106 0 0 1-.129.17 1.674 1.674 0 0 0-1.065-.37c-.386.006-.803.145-1.256.415a.106.106 0 0 1-.109-.183c.485-.29.937-.438 1.361-.445.43-.007.828.13 1.198.413zM5.673 2.268a.106.106 0 0 1-.106.184 2.083 2.083 0 0 0-1.313-.257c-.493.056-1.038.257-1.643.604a.107.107 0 0 1-.106-.185c.63-.361 1.203-.571 1.726-.63.53-.06 1.009.034 1.442.284zM4.888 1.343a.106.106 0 0 1-.047.208c-.519-.119-.98-.144-1.405-.065a2.73 2.73 0 0 0-1.194.555.106.106 0 0 1-.13-.168 2.936 2.936 0 0 1 1.286-.596c.455-.084.944-.059 1.49.066z"/></g><path style="fill:none" d="M0 0h6.827v6.827H0z" id="Layer_x0020_1_0"/></svg>