<svg xmlns="http://www.w3.org/2000/svg" width="128" height="128" xml:space="preserve"><path fill="#282D33" d="M25.383 59.742h-3.999V42.9c-.582-3.258-2.881-6.663-6.076-6.664l-2.822.02-.179-3.996a4.42 4.42 0 0 1 .416-.023l2.585-.001c5.514.002 9.229 5.12 10.049 10.174l.026.321v17.011z"/><path fill="#282D33" d="M52.667 96.313h-4v-10.75l-.883-13.81-18.108-18.21-1.02.973c-2.03 1.93-2.935 5.916-1.299 8.137l11.477 11.542-2.833 2.823-11.242-11.25a8.671 8.671 0 0 1-.382-.438l-6.47-6.507-6.902-7.331V33.854c-.58-3.256-2.878-6.659-6.075-6.661h-.891l.298 28.102 22.741 38.379-3.441 2.039L.351 56.41 0 23.339l1.894-.119c.19-.016.317-.025.451-.025l2.586-.002c5.517.002 9.231 5.119 10.049 10.172l.026.32v16.221l5.777 6.137 1.877 1.888c.399-2.414 1.568-4.722 3.238-6.31 2.402-2.292 2.468-2.349 2.521-2.394l1.409-1.202L51.68 69.998l.987 15.502v10.813z"/><path fill="#282D33" d="M60.897 120.492h-3.999V97.823H20.642v22.669h-4V93.823h44.255z"/><g><path fill="#282D33" d="M106.64 59.742h-3.999l.025-17.329c.816-5.055 4.527-10.173 10.042-10.176l2.593.001c.125 0 .246.008.367.019l-.132 4-.221-.016-2.607-.004c-3.193.001-5.49 3.406-6.068 6.663v16.842z"/><path fill="#282D33" d="M79.351 96.313h-4l.004-10.94.986-15.374 21.851-21.972 1.409 1.202c.089.076.147.126 2.5 2.55 1.637 1.554 2.788 3.835 3.188 6.226l1.989-2 5.737-6.097.025-16.54c.816-5.054 4.529-10.17 10.046-10.173l2.59.002c.131 0 .26.009.388.02l1.894.121.042 1.899-.331 31.173-23.287 39.303-3.441-2.039 22.74-38.379.298-28.1-.893-.002c-3.195.001-5.493 3.404-6.07 6.66v17.639l-6.863 7.292-6.477 6.514c-.141.18-.291.354-.45.523L91.942 77.118l-2.982-2.655.228-.267 11.48-11.546c1.535-2.196.628-6.123-1.381-8.031l-.994-1.023-18.057 18.158-.886 13.811v10.748z"/><path fill="#282D33" d="M111.377 120.492h-3.999V97.823h-36.26v22.669h-3.999V93.823h44.258z"/></g><g><path fill="#282D33" d="M64.359 65.041 38.232 38.763c-7.043-7.081-7.043-18.605.001-25.688l.238-.24c3.415-3.436 7.957-5.327 12.789-5.327s9.374 1.892 12.79 5.327l.308.31.305-.308c3.419-3.437 7.962-5.328 12.793-5.328 4.832 0 9.373 1.892 12.788 5.327l.24.242c7.041 7.082 7.04 18.605-.002 25.688L64.359 65.041zM51.26 11.507a13.943 13.943 0 0 0-9.952 4.147l-.239.24c-5.498 5.529-5.498 14.523 0 20.05L64.36 59.369l23.287-23.424c5.497-5.528 5.497-14.522.001-20.05l-.24-.242a13.94 13.94 0 0 0-9.95-4.145c-3.76 0-7.295 1.473-9.956 4.147l-3.14 3.164-3.146-3.165a13.954 13.954 0 0 0-9.956-4.147z"/></g></svg>