<svg xmlns="http://www.w3.org/2000/svg" xml:space="preserve" width="2048" height="2048" style="shape-rendering:geometricPrecision;text-rendering:geometricPrecision;image-rendering:optimizeQuality;fill-rule:evenodd;clip-rule:evenodd"><defs><style>.fil0{fill:#212121;fill-rule:nonzero}</style></defs><g id="Layer_x0020_1"><path class="fil0" d="M1274.6 500.424c-17.673 0-32 14.328-32 32 0 17.674 14.327 32.002 32 32.002h6.013c7.04 0 13.467 2.904 18.143 7.58 4.676 4.677 7.58 11.102 7.58 18.143v364.383c0 7.042-2.904 13.466-7.58 18.143-4.676 4.676-11.103 7.58-18.143 7.58H620.394c-7.04 0-13.467-2.904-18.143-7.58-4.677-4.677-7.581-11.103-7.581-18.143V590.149c0-7.04 2.904-13.466 7.581-18.143 4.676-4.676 11.102-7.58 18.143-7.58h6.013c17.673 0 32-14.328 32-32.001s-14.327-32.001-32-32.001h-6.013c-24.706 0-47.147 10.085-63.393 26.331-16.248 16.248-26.333 38.687-26.333 63.394v364.383c0 24.706 10.085 47.146 26.333 63.393 16.246 16.246 38.687 26.332 63.393 26.332h660.219c24.706 0 47.147-10.086 63.393-26.332 16.246-16.248 26.332-38.687 26.332-63.393V590.149c0-24.706-10.086-47.146-26.332-63.394-16.246-16.246-38.687-26.331-63.393-26.331h-6.013z"/><path class="fil0" d="M780.041 255.998c55.905 0 106.523 22.663 143.163 59.304 36.64 36.64 59.304 87.258 59.304 143.163 0 55.906-22.664 106.523-59.304 143.163-36.64 36.64-87.257 59.305-143.163 59.305-55.905 0-106.523-22.664-143.163-59.305-36.641-36.64-59.304-87.257-59.304-143.163 0-55.905 22.663-106.523 59.304-143.163 36.64-36.641 87.257-59.304 143.163-59.304zm97.912 104.555C852.9 335.498 818.28 320 780.041 320c-38.24 0-72.858 15.497-97.912 40.553-25.056 25.055-40.553 59.673-40.553 97.912 0 38.24 15.498 72.859 40.553 97.913 25.054 25.054 59.673 40.553 97.912 40.553 38.24 0 72.858-15.499 97.912-40.553 25.055-25.055 40.554-59.673 40.554-97.913 0-38.24-15.499-72.857-40.554-97.912z"/><path class="fil0" d="M1120.97 320c-38.24 0-72.858 15.498-97.913 40.553-25.055 25.055-40.554 59.673-40.554 97.913 0 38.239 15.499 72.857 40.554 97.912 25.055 25.054 59.674 40.553 97.913 40.553 38.24 0 72.858-15.498 97.912-40.553 25.055-25.055 40.553-59.673 40.553-97.913 0-38.239-15.498-72.857-40.553-97.912C1193.828 335.498 1159.21 320 1120.97 320zm-143.164-4.697c36.641-36.64 87.259-59.305 143.164-59.305 55.905 0 106.523 22.665 143.163 59.305 36.64 36.64 59.304 87.257 59.304 143.163 0 55.905-22.664 106.523-59.304 143.163-36.64 36.64-87.257 59.304-143.163 59.304-55.905 0-106.523-22.664-143.164-59.304-36.64-36.64-59.304-87.258-59.304-143.163 0-55.905 22.664-106.523 59.304-143.163zM1330.79 612.025l202.765-70.144-.045-.132c16.702-5.778 34.927 3.078 40.705 19.78a31.903 31.903 0 0 1 1.758 11.15v400.01c0 17.673-14.328 32-32 32a31.88 31.88 0 0 1-13.3-2.887l-202.707-70.123 10.375-30.126-10.462 30.242c-13.45-4.652-21.81-17.378-21.539-30.878v-257.79c0-15.072 10.421-27.709 24.45-31.102zm181.181 4.752-141.63 48.994V878.91l141.63 48.995V616.777zM950.507 980.255h128.068c17.673 0 32 14.328 32 32 0 44.198-17.919 84.217-46.885 113.184-28.967 28.966-68.986 46.885-113.183 46.885s-84.217-17.919-113.183-46.885c-28.967-28.967-46.886-68.986-46.886-113.183 0-17.673 14.328-32.001 32.001-32.001h128.067zm90.61 64.002h-181.22c4.824 13.66 12.647 25.9 22.678 35.931 17.382 17.382 41.4 28.134 67.932 28.134 26.531 0 50.55-10.752 67.932-28.134 10.031-10.031 17.855-22.272 22.677-35.931z"/><path class="fil0" d="M894.255 1124.65c8.56-15.395 3.019-34.815-12.376-43.375-15.394-8.56-34.815-3.019-43.374 12.376l-362.352 650.852c-8.56 15.394-3.02 34.815 12.375 43.375 15.395 8.56 34.816 3.019 43.375-12.376l362.352-650.852zM1062.51 1093.65c-8.56-15.395-27.98-20.935-43.375-12.376-15.394 8.56-20.935 27.98-12.375 43.375l362.35 650.852c8.56 15.395 27.98 20.935 43.375 12.376 15.395-8.56 20.936-27.98 12.376-43.375L1062.51 1093.65zM982.508 1140.32c0-17.673-14.328-32-32-32-17.674 0-32.002 14.327-32.002 32v541.165c0 17.673 14.328 32 32.001 32s32.001-14.327 32.001-32V1140.32z"/></g><path style="fill:none" d="M0 0h2048v2048H0z"/></svg>